<?xml version="1.0" encoding="UTF-8" standalone="no"?>
<!DOCTYPE svg PUBLIC "-//W3C//DTD SVG 1.1//EN" "http://www.w3.org/Graphics/SVG/1.1/DTD/svg11.dtd">
<svg version="1.1" xmlns="http://www.w3.org/2000/svg" xmlns:xlink="http://www.w3.org/1999/xlink" preserveAspectRatio="xMidYMid meet" viewBox="0 0 700 500" width="700" height="500"><defs><path d="M242.57 200.68C234.48 200.68 227.91 194.12 227.91 186.03C227.91 177.94 234.48 171.38 242.57 171.38C250.65 171.38 257.22 177.94 257.22 186.03C257.22 194.12 250.65 200.68 242.57 200.68Z" id="c2a0b1Ek2l"></path><path d="M242.57 200.68C234.48 200.68 227.91 194.12 227.91 186.03C227.91 177.94 234.48 171.38 242.57 171.38C250.65 171.38 257.22 177.94 257.22 186.03C257.22 194.12 250.65 200.68 242.57 200.68Z" id="hjdUNJvy5"></path><path d="M242.57 271.38C234.48 271.38 227.91 264.81 227.91 256.72C227.91 248.64 234.48 242.07 242.57 242.07C250.65 242.07 257.22 248.64 257.22 256.72C257.22 264.81 250.65 271.38 242.57 271.38Z" id="arH3HYInn"></path><path d="M242.57 271.38C234.48 271.38 227.91 264.81 227.91 256.72C227.91 248.64 234.48 242.07 242.57 242.07C250.65 242.07 257.22 248.64 257.22 256.72C257.22 264.81 250.65 271.38 242.57 271.38Z" id="d1K1rdIDs"></path><path d="M242.57 236.35C234.48 236.35 227.91 229.79 227.91 221.7C227.91 213.61 234.48 207.05 242.57 207.05C250.65 207.05 257.22 213.61 257.22 221.7C257.22 229.79 250.65 236.35 242.57 236.35Z" id="a2RtQFOXmN"></path><path d="M242.57 236.35C234.48 236.35 227.91 229.79 227.91 221.7C227.91 213.61 234.48 207.05 242.57 207.05C250.65 207.05 257.22 213.61 257.22 221.7C257.22 229.79 250.65 236.35 242.57 236.35Z" id="bclXlcwgx"></path><path d="M483.1 177.88L275.81 177.88L275.81 194.18L483.1 194.18L483.1 177.88Z" id="a9gISTZ6H"></path><path d="M483.1 177.88L275.81 177.88L275.81 194.18L483.1 194.18L483.1 177.88Z" id="ayTy3IxTp"></path><path d="M483.1 213.55L275.81 213.55L275.81 229.85L483.1 229.85L483.1 213.55Z" id="a1LN1Wy1I1"></path><path d="M483.1 213.55L275.81 213.55L275.81 229.85L483.1 229.85L483.1 213.55Z" id="b1mONfZJQ8"></path><path d="M483.1 248.58L275.81 248.58L275.81 264.87L483.1 264.87L483.1 248.58Z" id="aPAATfqZb"></path><path d="M483.1 248.58L275.81 248.58L275.81 264.87L483.1 264.87L483.1 248.58Z" id="aCu5l3wW2"></path><path d="M525.55 145L190.61 145L176.33 78.22L70.47 26.56L68.19 39.3L167.63 88.05L216.46 316.43C375.22 315.05 464.01 314.36 482.82 314.36C482.82 314.36 527.21 342.18 516.46 364.25C511.68 371.09 493.91 379.49 480.63 379.49C461.91 379.49 368.29 379.49 199.77 379.49L199.77 393.4C368.28 392.02 461.9 391.33 480.63 391.33C499.97 391.33 516.37 389.45 525.55 373.24C543.52 339.64 491.75 307.21 491.75 307.21C496.5 284.03 507.77 229.96 525.55 145ZM192.64 156.25L515.4 156.25L484.83 304.29L224.19 304.29L192.64 156.25Z" id="butdzx351"></path><path d="M216.41 440.34C216.41 461.63 224.73 471.23 246.12 471.23C267.51 471.23 275.81 461.63 275.81 440.34C275.81 419.05 267.51 411.52 246.12 411.52C224.73 411.52 216.41 419.05 216.41 440.34ZM227.76 440.34C227.76 430.18 235.87 422.08 246.12 422.08C256.37 422.08 264.48 430.18 264.48 440.34C264.48 450.5 256.28 458.6 246.12 458.6C235.96 458.6 227.76 450.5 227.76 440.34Z" id="l2H1IKFES"></path><path d="M423.71 440.34C423.71 461.63 432.03 471.23 453.42 471.23C474.8 471.23 483.1 461.63 483.1 440.34C483.1 419.05 474.8 411.52 453.42 411.52C432.03 411.52 423.71 419.05 423.71 440.34ZM435.06 440.34C435.06 430.18 443.16 422.08 453.42 422.08C463.67 422.08 471.77 430.18 471.77 440.34C471.77 450.5 463.57 458.6 453.42 458.6C443.26 458.6 435.06 450.5 435.06 440.34Z" id="b9v6DIsD9"></path></defs><g><g><g><use xlink:href="#c2a0b1Ek2l" opacity="1" fill="#1f1b2b" fill-opacity="0"></use><g><use xlink:href="#c2a0b1Ek2l" opacity="1" fill-opacity="0" stroke="#000000" stroke-width="1" stroke-opacity="0"></use></g></g><g><use xlink:href="#hjdUNJvy5" opacity="1" fill="#000000" fill-opacity="0"></use><g><use xlink:href="#hjdUNJvy5" opacity="1" fill-opacity="0" stroke="#0aaaaa" stroke-width="4" stroke-opacity="1"></use></g></g><g><use xlink:href="#arH3HYInn" opacity="1" fill="#1f1b2b" fill-opacity="0"></use><g><use xlink:href="#arH3HYInn" opacity="1" fill-opacity="0" stroke="#000000" stroke-width="1" stroke-opacity="0"></use></g></g><g><use xlink:href="#d1K1rdIDs" opacity="1" fill="#000000" fill-opacity="0"></use><g><use xlink:href="#d1K1rdIDs" opacity="1" fill-opacity="0" stroke="#0aaaaa" stroke-width="4" stroke-opacity="1"></use></g></g><g><use xlink:href="#a2RtQFOXmN" opacity="1" fill="#1f1b2b" fill-opacity="0"></use><g><use xlink:href="#a2RtQFOXmN" opacity="1" fill-opacity="0" stroke="#000000" stroke-width="1" stroke-opacity="0"></use></g></g><g><use xlink:href="#bclXlcwgx" opacity="1" fill="#000000" fill-opacity="0"></use><g><use xlink:href="#bclXlcwgx" opacity="1" fill-opacity="0" stroke="#0aaaaa" stroke-width="4" stroke-opacity="1"></use></g></g><g><use xlink:href="#a9gISTZ6H" opacity="1" fill="#1c5e9b" fill-opacity="0"></use><g><use xlink:href="#a9gISTZ6H" opacity="1" fill-opacity="0" stroke="#000000" stroke-width="1" stroke-opacity="0"></use></g></g><g><use xlink:href="#ayTy3IxTp" opacity="1" fill="#000000" fill-opacity="0"></use><g><use xlink:href="#ayTy3IxTp" opacity="1" fill-opacity="0" stroke="#0aaaaa" stroke-width="2" stroke-opacity="1"></use></g></g><g><use xlink:href="#a1LN1Wy1I1" opacity="1" fill="#1c5e9b" fill-opacity="0"></use><g><use xlink:href="#a1LN1Wy1I1" opacity="1" fill-opacity="0" stroke="#000000" stroke-width="1" stroke-opacity="0"></use></g></g><g><use xlink:href="#b1mONfZJQ8" opacity="1" fill="#000000" fill-opacity="0"></use><g><use xlink:href="#b1mONfZJQ8" opacity="1" fill-opacity="0" stroke="#0aaaaa" stroke-width="2" stroke-opacity="1"></use></g></g><g><use xlink:href="#aPAATfqZb" opacity="1" fill="#1c5e9b" fill-opacity="0"></use><g><use xlink:href="#aPAATfqZb" opacity="1" fill-opacity="0" stroke="#000000" stroke-width="1" stroke-opacity="0"></use></g></g><g><use xlink:href="#aCu5l3wW2" opacity="1" fill="#000000" fill-opacity="0"></use><g><use xlink:href="#aCu5l3wW2" opacity="1" fill-opacity="0" stroke="#0aaaaa" stroke-width="2" stroke-opacity="1"></use></g></g><g><use xlink:href="#butdzx351" opacity="1" fill="#0aaaaa" fill-opacity="1"></use><g><use xlink:href="#butdzx351" opacity="1" fill-opacity="0" stroke="#000000" stroke-width="1" stroke-opacity="0"></use></g></g><g><use xlink:href="#l2H1IKFES" opacity="1" fill="#0aaaaa" fill-opacity="1"></use><g><use xlink:href="#l2H1IKFES" opacity="1" fill-opacity="0" stroke="#000000" stroke-width="1" stroke-opacity="0"></use></g></g><g><use xlink:href="#b9v6DIsD9" opacity="1" fill="#0aaaaa" fill-opacity="1"></use><g><use xlink:href="#b9v6DIsD9" opacity="1" fill-opacity="0" stroke="#000000" stroke-width="1" stroke-opacity="0"></use></g></g></g></g></svg>